<mxfile host="app.diagrams.net" agent="Mozilla/5.0 (Windows NT 10.0; Win64; x64) AppleWebKit/537.36 (KHTML, like Gecko) Chrome/129.0.0.0 Safari/537.36" version="24.7.17">
  <diagram name="Seite-1" id="p63VLaspHqnrgBOGA-di">
    <mxGraphModel dx="4070" dy="2388" grid="1" gridSize="10" guides="1" tooltips="1" connect="1" arrows="1" fold="1" page="1" pageScale="1" pageWidth="1654" pageHeight="1169" math="0" shadow="0">
      <root>
        <mxCell id="0" />
        <mxCell id="1" parent="0" />
        <mxCell id="w7tAdLLK2ZvJtZfWx73t-84" style="edgeStyle=orthogonalEdgeStyle;rounded=0;orthogonalLoop=1;jettySize=auto;html=1;" edge="1" parent="1">
          <mxGeometry relative="1" as="geometry">
            <mxPoint x="780" y="45" as="targetPoint" />
            <mxPoint x="800" y="40" as="sourcePoint" />
          </mxGeometry>
        </mxCell>
        <mxCell id="w7tAdLLK2ZvJtZfWx73t-1" value="Ship placements" style="rounded=0;whiteSpace=wrap;html=1;" vertex="1" parent="1">
          <mxGeometry x="160" width="610" height="70" as="geometry" />
        </mxCell>
        <mxCell id="w7tAdLLK2ZvJtZfWx73t-2" value="Turn 1" style="rounded=0;whiteSpace=wrap;html=1;" vertex="1" parent="1">
          <mxGeometry x="-80" y="292.5" width="240" height="145" as="geometry" />
        </mxCell>
        <mxCell id="w7tAdLLK2ZvJtZfWx73t-3" value="Turn 2" style="rounded=0;whiteSpace=wrap;html=1;" vertex="1" parent="1">
          <mxGeometry x="-65" y="570" width="250" height="140" as="geometry" />
        </mxCell>
        <mxCell id="w7tAdLLK2ZvJtZfWx73t-6" value="" style="endArrow=classic;html=1;rounded=0;" edge="1" parent="1">
          <mxGeometry width="50" height="50" relative="1" as="geometry">
            <mxPoint x="350" y="360" as="sourcePoint" />
            <mxPoint x="380" y="360" as="targetPoint" />
          </mxGeometry>
        </mxCell>
        <mxCell id="w7tAdLLK2ZvJtZfWx73t-7" value="Player1 places ships and presses button" style="rounded=0;whiteSpace=wrap;html=1;" vertex="1" parent="1">
          <mxGeometry x="390" y="325" width="150" height="80" as="geometry" />
        </mxCell>
        <mxCell id="w7tAdLLK2ZvJtZfWx73t-8" value="Check if all ships were placed&amp;nbsp;" style="rounded=0;whiteSpace=wrap;html=1;" vertex="1" parent="1">
          <mxGeometry x="630" y="335" width="150" height="65" as="geometry" />
        </mxCell>
        <mxCell id="w7tAdLLK2ZvJtZfWx73t-13" value="" style="endArrow=classic;html=1;rounded=0;" edge="1" parent="1">
          <mxGeometry width="50" height="50" relative="1" as="geometry">
            <mxPoint x="560" y="370" as="sourcePoint" />
            <mxPoint x="610" y="370" as="targetPoint" />
          </mxGeometry>
        </mxCell>
        <mxCell id="w7tAdLLK2ZvJtZfWx73t-14" value="Background gets loaded, ships, text and grid displayed on screen" style="rounded=0;whiteSpace=wrap;html=1;" vertex="1" parent="1">
          <mxGeometry x="200" y="322.5" width="140" height="85" as="geometry" />
        </mxCell>
        <mxCell id="w7tAdLLK2ZvJtZfWx73t-20" value="" style="curved=1;endArrow=classic;html=1;rounded=0;exitX=0.5;exitY=0;exitDx=0;exitDy=0;entryX=0.5;entryY=0;entryDx=0;entryDy=0;" edge="1" parent="1" source="w7tAdLLK2ZvJtZfWx73t-8" target="w7tAdLLK2ZvJtZfWx73t-7">
          <mxGeometry width="50" height="50" relative="1" as="geometry">
            <mxPoint x="640" y="310" as="sourcePoint" />
            <mxPoint x="690" y="260" as="targetPoint" />
            <Array as="points">
              <mxPoint x="690" y="310" />
              <mxPoint x="580" y="240" />
            </Array>
          </mxGeometry>
        </mxCell>
        <mxCell id="w7tAdLLK2ZvJtZfWx73t-21" value="if ships missing" style="text;html=1;align=center;verticalAlign=middle;resizable=0;points=[];autosize=1;strokeColor=none;fillColor=none;" vertex="1" parent="1">
          <mxGeometry x="525" y="230" width="100" height="30" as="geometry" />
        </mxCell>
        <mxCell id="w7tAdLLK2ZvJtZfWx73t-23" value="" style="endArrow=classic;html=1;rounded=0;exitX=0.5;exitY=1;exitDx=0;exitDy=0;entryX=0.5;entryY=0;entryDx=0;entryDy=0;" edge="1" parent="1" source="w7tAdLLK2ZvJtZfWx73t-8" target="w7tAdLLK2ZvJtZfWx73t-25">
          <mxGeometry width="50" height="50" relative="1" as="geometry">
            <mxPoint x="735" y="390" as="sourcePoint" />
            <mxPoint x="220" y="570" as="targetPoint" />
          </mxGeometry>
        </mxCell>
        <mxCell id="w7tAdLLK2ZvJtZfWx73t-24" value="if all placed&lt;div&gt;&lt;br&gt;&lt;/div&gt;" style="text;html=1;align=center;verticalAlign=middle;resizable=0;points=[];autosize=1;strokeColor=none;fillColor=none;" vertex="1" parent="1">
          <mxGeometry x="480" y="468" width="80" height="40" as="geometry" />
        </mxCell>
        <mxCell id="w7tAdLLK2ZvJtZfWx73t-25" value="Player 2 places ships and presses button" style="rounded=0;whiteSpace=wrap;html=1;" vertex="1" parent="1">
          <mxGeometry x="380" y="566" width="150" height="80" as="geometry" />
        </mxCell>
        <mxCell id="w7tAdLLK2ZvJtZfWx73t-26" value="check if all ships were placed" style="rounded=0;whiteSpace=wrap;html=1;" vertex="1" parent="1">
          <mxGeometry x="575" y="566" width="160" height="80" as="geometry" />
        </mxCell>
        <mxCell id="w7tAdLLK2ZvJtZfWx73t-27" value="" style="curved=1;endArrow=classic;html=1;rounded=0;entryX=0.5;entryY=1;entryDx=0;entryDy=0;exitX=0.5;exitY=1;exitDx=0;exitDy=0;" edge="1" parent="1" source="w7tAdLLK2ZvJtZfWx73t-26" target="w7tAdLLK2ZvJtZfWx73t-25">
          <mxGeometry width="50" height="50" relative="1" as="geometry">
            <mxPoint x="460" y="736" as="sourcePoint" />
            <mxPoint x="510" y="686" as="targetPoint" />
            <Array as="points">
              <mxPoint x="590" y="756" />
              <mxPoint x="460" y="686" />
            </Array>
          </mxGeometry>
        </mxCell>
        <mxCell id="w7tAdLLK2ZvJtZfWx73t-28" value="if ships missing" style="text;html=1;align=center;verticalAlign=middle;resizable=0;points=[];autosize=1;strokeColor=none;fillColor=none;" vertex="1" parent="1">
          <mxGeometry x="500" y="734" width="100" height="30" as="geometry" />
        </mxCell>
        <mxCell id="w7tAdLLK2ZvJtZfWx73t-29" value="" style="endArrow=classic;html=1;rounded=0;exitX=1;exitY=0.5;exitDx=0;exitDy=0;entryX=0;entryY=1;entryDx=0;entryDy=0;" edge="1" parent="1" source="w7tAdLLK2ZvJtZfWx73t-26" target="w7tAdLLK2ZvJtZfWx73t-33">
          <mxGeometry width="50" height="50" relative="1" as="geometry">
            <mxPoint x="610" y="600" as="sourcePoint" />
            <mxPoint x="810" y="530" as="targetPoint" />
          </mxGeometry>
        </mxCell>
        <mxCell id="w7tAdLLK2ZvJtZfWx73t-30" value="if all placed" style="text;html=1;align=center;verticalAlign=middle;resizable=0;points=[];autosize=1;strokeColor=none;fillColor=none;" vertex="1" parent="1">
          <mxGeometry x="710" y="508" width="80" height="30" as="geometry" />
        </mxCell>
        <mxCell id="w7tAdLLK2ZvJtZfWx73t-31" value="Playing phase" style="rounded=0;whiteSpace=wrap;html=1;" vertex="1" parent="1">
          <mxGeometry x="1000" y="-10" width="830" height="70" as="geometry" />
        </mxCell>
        <mxCell id="w7tAdLLK2ZvJtZfWx73t-33" value="draw smallergrids and store ship positions" style="rounded=0;whiteSpace=wrap;html=1;" vertex="1" parent="1">
          <mxGeometry x="840" y="448" width="120" height="60" as="geometry" />
        </mxCell>
        <mxCell id="w7tAdLLK2ZvJtZfWx73t-34" value="Player1 selects grid to check and clicks on button&amp;nbsp;" style="rounded=0;whiteSpace=wrap;html=1;" vertex="1" parent="1">
          <mxGeometry x="1010" y="340" width="170" height="60" as="geometry" />
        </mxCell>
        <mxCell id="w7tAdLLK2ZvJtZfWx73t-35" value="" style="endArrow=classic;html=1;rounded=0;exitX=1;exitY=0;exitDx=0;exitDy=0;entryX=0;entryY=1;entryDx=0;entryDy=0;" edge="1" parent="1" source="w7tAdLLK2ZvJtZfWx73t-33" target="w7tAdLLK2ZvJtZfWx73t-34">
          <mxGeometry width="50" height="50" relative="1" as="geometry">
            <mxPoint x="950" y="430" as="sourcePoint" />
            <mxPoint x="1000" y="380" as="targetPoint" />
          </mxGeometry>
        </mxCell>
        <mxCell id="w7tAdLLK2ZvJtZfWx73t-36" value="" style="endArrow=classic;html=1;rounded=0;exitX=1;exitY=0.5;exitDx=0;exitDy=0;entryX=0;entryY=0;entryDx=0;entryDy=0;" edge="1" parent="1" source="w7tAdLLK2ZvJtZfWx73t-34" target="w7tAdLLK2ZvJtZfWx73t-37">
          <mxGeometry width="50" height="50" relative="1" as="geometry">
            <mxPoint x="1230" y="390" as="sourcePoint" />
            <mxPoint x="1240" y="370" as="targetPoint" />
          </mxGeometry>
        </mxCell>
        <mxCell id="w7tAdLLK2ZvJtZfWx73t-37" value="Check for matching row and col between selected grid and ships&lt;div&gt;(miss or hit)&lt;/div&gt;" style="rounded=0;whiteSpace=wrap;html=1;" vertex="1" parent="1">
          <mxGeometry x="1390" y="345" width="140" height="395" as="geometry" />
        </mxCell>
        <mxCell id="w7tAdLLK2ZvJtZfWx73t-41" value="Remove grid from smallergrid ship list&lt;div&gt;&lt;br&gt;&lt;/div&gt;" style="rounded=0;whiteSpace=wrap;html=1;" vertex="1" parent="1">
          <mxGeometry x="1654" y="325" width="120" height="60" as="geometry" />
        </mxCell>
        <mxCell id="w7tAdLLK2ZvJtZfWx73t-46" value="check if ship in smallergrid ship list has any grids left" style="rounded=0;whiteSpace=wrap;html=1;" vertex="1" parent="1">
          <mxGeometry x="1630" y="211.25" width="120" height="67.5" as="geometry" />
        </mxCell>
        <mxCell id="w7tAdLLK2ZvJtZfWx73t-48" value="remove ship from smallergrid ship list" style="rounded=0;whiteSpace=wrap;html=1;" vertex="1" parent="1">
          <mxGeometry x="1397" y="158.25" width="143" height="53" as="geometry" />
        </mxCell>
        <mxCell id="w7tAdLLK2ZvJtZfWx73t-55" value="Player2 selects grid to check and clicks on button&amp;nbsp;" style="rounded=0;whiteSpace=wrap;html=1;" vertex="1" parent="1">
          <mxGeometry x="1000" y="550" width="130" height="84" as="geometry" />
        </mxCell>
        <mxCell id="w7tAdLLK2ZvJtZfWx73t-57" value="Object diagram 1" style="shape=note2;boundedLbl=1;whiteSpace=wrap;html=1;size=25;verticalAlign=top;align=center;" vertex="1" parent="1">
          <mxGeometry x="260" y="704" width="120" height="60" as="geometry" />
        </mxCell>
        <mxCell id="w7tAdLLK2ZvJtZfWx73t-58" value="" style="endArrow=none;dashed=1;html=1;rounded=0;exitX=0;exitY=0;exitDx=47.50000000000001;exitDy=0;exitPerimeter=0;entryX=0;entryY=1;entryDx=0;entryDy=0;" edge="1" parent="1" source="w7tAdLLK2ZvJtZfWx73t-57" target="w7tAdLLK2ZvJtZfWx73t-25">
          <mxGeometry width="50" height="50" relative="1" as="geometry">
            <mxPoint x="320" y="680" as="sourcePoint" />
            <mxPoint x="370" y="630" as="targetPoint" />
          </mxGeometry>
        </mxCell>
        <mxCell id="w7tAdLLK2ZvJtZfWx73t-66" value="" style="endArrow=classic;html=1;rounded=0;exitX=1;exitY=0.5;exitDx=0;exitDy=0;entryX=0;entryY=0.5;entryDx=0;entryDy=0;" edge="1" parent="1" source="w7tAdLLK2ZvJtZfWx73t-55" target="w7tAdLLK2ZvJtZfWx73t-37">
          <mxGeometry width="50" height="50" relative="1" as="geometry">
            <mxPoint x="1190" y="670" as="sourcePoint" />
            <mxPoint x="1370" y="510" as="targetPoint" />
          </mxGeometry>
        </mxCell>
        <mxCell id="w7tAdLLK2ZvJtZfWx73t-69" value="" style="endArrow=classic;html=1;rounded=0;exitX=0;exitY=0;exitDx=0;exitDy=0;entryX=1;entryY=0;entryDx=0;entryDy=0;" edge="1" parent="1" source="w7tAdLLK2ZvJtZfWx73t-37" target="w7tAdLLK2ZvJtZfWx73t-55">
          <mxGeometry width="50" height="50" relative="1" as="geometry">
            <mxPoint x="1170" y="490" as="sourcePoint" />
            <mxPoint x="1220" y="440" as="targetPoint" />
          </mxGeometry>
        </mxCell>
        <mxCell id="w7tAdLLK2ZvJtZfWx73t-70" value="if player1 miss" style="text;html=1;align=center;verticalAlign=middle;resizable=0;points=[];autosize=1;strokeColor=none;fillColor=none;rotation=-45;" vertex="1" parent="1">
          <mxGeometry x="1130" y="468" width="100" height="30" as="geometry" />
        </mxCell>
        <mxCell id="w7tAdLLK2ZvJtZfWx73t-71" value="" style="endArrow=classic;html=1;rounded=0;exitX=0;exitY=0.5;exitDx=0;exitDy=0;entryX=1;entryY=1;entryDx=0;entryDy=0;" edge="1" parent="1" source="w7tAdLLK2ZvJtZfWx73t-37" target="w7tAdLLK2ZvJtZfWx73t-34">
          <mxGeometry width="50" height="50" relative="1" as="geometry">
            <mxPoint x="1180" y="740" as="sourcePoint" />
            <mxPoint x="1230" y="690" as="targetPoint" />
          </mxGeometry>
        </mxCell>
        <mxCell id="w7tAdLLK2ZvJtZfWx73t-72" value="if player2 miss" style="text;html=1;align=center;verticalAlign=middle;resizable=0;points=[];autosize=1;strokeColor=none;fillColor=none;rotation=35;" vertex="1" parent="1">
          <mxGeometry x="1280" y="468" width="100" height="30" as="geometry" />
        </mxCell>
        <mxCell id="w7tAdLLK2ZvJtZfWx73t-73" value="" style="endArrow=classic;html=1;rounded=0;exitX=1;exitY=0.25;exitDx=0;exitDy=0;" edge="1" parent="1" source="w7tAdLLK2ZvJtZfWx73t-37">
          <mxGeometry width="50" height="50" relative="1" as="geometry">
            <mxPoint x="1570" y="410" as="sourcePoint" />
            <mxPoint x="1650" y="380" as="targetPoint" />
          </mxGeometry>
        </mxCell>
        <mxCell id="w7tAdLLK2ZvJtZfWx73t-74" value="if player1 hit" style="text;html=1;align=center;verticalAlign=middle;resizable=0;points=[];autosize=1;strokeColor=none;fillColor=none;rotation=-30;" vertex="1" parent="1">
          <mxGeometry x="1540" y="375" width="90" height="30" as="geometry" />
        </mxCell>
        <mxCell id="w7tAdLLK2ZvJtZfWx73t-75" value="" style="endArrow=classic;html=1;rounded=0;exitX=0.5;exitY=0;exitDx=0;exitDy=0;entryX=0.5;entryY=1;entryDx=0;entryDy=0;" edge="1" parent="1" source="w7tAdLLK2ZvJtZfWx73t-41" target="w7tAdLLK2ZvJtZfWx73t-46">
          <mxGeometry width="50" height="50" relative="1" as="geometry">
            <mxPoint x="1780" y="335" as="sourcePoint" />
            <mxPoint x="1830" y="285" as="targetPoint" />
          </mxGeometry>
        </mxCell>
        <mxCell id="w7tAdLLK2ZvJtZfWx73t-76" value="" style="endArrow=classic;html=1;rounded=0;entryX=0.75;entryY=0;entryDx=0;entryDy=0;exitX=0;exitY=1;exitDx=0;exitDy=0;" edge="1" parent="1" source="w7tAdLLK2ZvJtZfWx73t-48" target="w7tAdLLK2ZvJtZfWx73t-34">
          <mxGeometry width="50" height="50" relative="1" as="geometry">
            <mxPoint x="1220" y="300" as="sourcePoint" />
            <mxPoint x="1270" y="250" as="targetPoint" />
          </mxGeometry>
        </mxCell>
        <mxCell id="w7tAdLLK2ZvJtZfWx73t-78" value="repeat turn" style="text;html=1;align=center;verticalAlign=middle;resizable=0;points=[];autosize=1;strokeColor=none;fillColor=none;rotation=-15;" vertex="1" parent="1">
          <mxGeometry x="1170" y="248.75" width="80" height="30" as="geometry" />
        </mxCell>
        <mxCell id="w7tAdLLK2ZvJtZfWx73t-79" value="" style="endArrow=classic;html=1;rounded=0;entryX=1;entryY=0;entryDx=0;entryDy=0;exitX=0;exitY=1;exitDx=0;exitDy=0;" edge="1" parent="1" source="w7tAdLLK2ZvJtZfWx73t-46" target="w7tAdLLK2ZvJtZfWx73t-34">
          <mxGeometry width="50" height="50" relative="1" as="geometry">
            <mxPoint x="1120" y="320" as="sourcePoint" />
            <mxPoint x="1170" y="270" as="targetPoint" />
          </mxGeometry>
        </mxCell>
        <mxCell id="w7tAdLLK2ZvJtZfWx73t-80" value="repeat turn (if grids left)" style="text;html=1;align=center;verticalAlign=middle;resizable=0;points=[];autosize=1;strokeColor=none;fillColor=none;" vertex="1" parent="1">
          <mxGeometry x="1340" y="270" width="150" height="30" as="geometry" />
        </mxCell>
        <mxCell id="w7tAdLLK2ZvJtZfWx73t-81" value="" style="endArrow=classic;html=1;rounded=0;entryX=1;entryY=0.5;entryDx=0;entryDy=0;exitX=0;exitY=0;exitDx=0;exitDy=0;" edge="1" parent="1" source="w7tAdLLK2ZvJtZfWx73t-46" target="w7tAdLLK2ZvJtZfWx73t-48">
          <mxGeometry width="50" height="50" relative="1" as="geometry">
            <mxPoint x="1600" y="190" as="sourcePoint" />
            <mxPoint x="1650" y="140" as="targetPoint" />
          </mxGeometry>
        </mxCell>
        <mxCell id="w7tAdLLK2ZvJtZfWx73t-82" value="if no grids left" style="text;html=1;align=center;verticalAlign=middle;resizable=0;points=[];autosize=1;strokeColor=none;fillColor=none;" vertex="1" parent="1">
          <mxGeometry x="1560" y="169.75" width="90" height="30" as="geometry" />
        </mxCell>
        <mxCell id="w7tAdLLK2ZvJtZfWx73t-85" value="Remove grid from smallergrid ship list&lt;div&gt;&lt;br&gt;&lt;/div&gt;" style="rounded=0;whiteSpace=wrap;html=1;" vertex="1" parent="1">
          <mxGeometry x="1620" y="630" width="120" height="60" as="geometry" />
        </mxCell>
        <mxCell id="w7tAdLLK2ZvJtZfWx73t-86" value="check if ship in smallergrid ship list has any grids left" style="rounded=0;whiteSpace=wrap;html=1;" vertex="1" parent="1">
          <mxGeometry x="1545" y="789.25" width="120" height="67.5" as="geometry" />
        </mxCell>
        <mxCell id="w7tAdLLK2ZvJtZfWx73t-87" value="remove ship from smallergrid ship list" style="rounded=0;whiteSpace=wrap;html=1;" vertex="1" parent="1">
          <mxGeometry x="1340" y="890" width="153" height="53" as="geometry" />
        </mxCell>
        <mxCell id="w7tAdLLK2ZvJtZfWx73t-89" value="" style="endArrow=classic;html=1;rounded=0;exitX=0.5;exitY=1;exitDx=0;exitDy=0;entryX=0.5;entryY=0;entryDx=0;entryDy=0;" edge="1" parent="1" source="w7tAdLLK2ZvJtZfWx73t-85" target="w7tAdLLK2ZvJtZfWx73t-86">
          <mxGeometry width="50" height="50" relative="1" as="geometry">
            <mxPoint x="2183" y="836.75" as="sourcePoint" />
            <mxPoint x="2233" y="786.75" as="targetPoint" />
          </mxGeometry>
        </mxCell>
        <mxCell id="w7tAdLLK2ZvJtZfWx73t-90" value="" style="endArrow=classic;html=1;rounded=0;entryX=1;entryY=0.5;entryDx=0;entryDy=0;exitX=0;exitY=1;exitDx=0;exitDy=0;" edge="1" parent="1" source="w7tAdLLK2ZvJtZfWx73t-86" target="w7tAdLLK2ZvJtZfWx73t-87">
          <mxGeometry width="50" height="50" relative="1" as="geometry">
            <mxPoint x="2003" y="691.75" as="sourcePoint" />
            <mxPoint x="2053" y="641.75" as="targetPoint" />
          </mxGeometry>
        </mxCell>
        <mxCell id="w7tAdLLK2ZvJtZfWx73t-91" value="if no grids left" style="text;html=1;align=center;verticalAlign=middle;resizable=0;points=[];autosize=1;strokeColor=none;fillColor=none;rotation=0;" vertex="1" parent="1">
          <mxGeometry x="1520" y="890" width="90" height="30" as="geometry" />
        </mxCell>
        <mxCell id="w7tAdLLK2ZvJtZfWx73t-93" value="" style="endArrow=classic;html=1;rounded=0;exitX=1;exitY=0.5;exitDx=0;exitDy=0;entryX=-0.003;entryY=0.139;entryDx=0;entryDy=0;entryPerimeter=0;" edge="1" parent="1" source="w7tAdLLK2ZvJtZfWx73t-37" target="w7tAdLLK2ZvJtZfWx73t-85">
          <mxGeometry width="50" height="50" relative="1" as="geometry">
            <mxPoint x="1560" y="560" as="sourcePoint" />
            <mxPoint x="1610" y="510" as="targetPoint" />
          </mxGeometry>
        </mxCell>
        <mxCell id="w7tAdLLK2ZvJtZfWx73t-94" value="if player2 hit" style="text;html=1;align=center;verticalAlign=middle;resizable=0;points=[];autosize=1;strokeColor=none;fillColor=none;rotation=15;" vertex="1" parent="1">
          <mxGeometry x="1550" y="540" width="90" height="30" as="geometry" />
        </mxCell>
        <mxCell id="w7tAdLLK2ZvJtZfWx73t-95" value="" style="endArrow=classic;html=1;rounded=0;exitX=0;exitY=0;exitDx=0;exitDy=0;entryX=0.75;entryY=1;entryDx=0;entryDy=0;" edge="1" parent="1" source="w7tAdLLK2ZvJtZfWx73t-87" target="w7tAdLLK2ZvJtZfWx73t-55">
          <mxGeometry width="50" height="50" relative="1" as="geometry">
            <mxPoint x="1200" y="860" as="sourcePoint" />
            <mxPoint x="1250" y="810" as="targetPoint" />
          </mxGeometry>
        </mxCell>
        <mxCell id="w7tAdLLK2ZvJtZfWx73t-96" value="repeat turn" style="text;html=1;align=center;verticalAlign=middle;resizable=0;points=[];autosize=1;strokeColor=none;fillColor=none;" vertex="1" parent="1">
          <mxGeometry x="1170" y="808" width="80" height="30" as="geometry" />
        </mxCell>
        <mxCell id="w7tAdLLK2ZvJtZfWx73t-97" value="" style="endArrow=classic;html=1;rounded=0;exitX=0;exitY=0.5;exitDx=0;exitDy=0;entryX=1;entryY=1;entryDx=0;entryDy=0;" edge="1" parent="1" source="w7tAdLLK2ZvJtZfWx73t-86" target="w7tAdLLK2ZvJtZfWx73t-55">
          <mxGeometry width="50" height="50" relative="1" as="geometry">
            <mxPoint x="1370" y="810" as="sourcePoint" />
            <mxPoint x="1420" y="760" as="targetPoint" />
          </mxGeometry>
        </mxCell>
        <mxCell id="w7tAdLLK2ZvJtZfWx73t-98" value="repeat turn (if grids left)" style="text;html=1;align=center;verticalAlign=middle;resizable=0;points=[];autosize=1;strokeColor=none;fillColor=none;rotation=10;" vertex="1" parent="1">
          <mxGeometry x="1310" y="759.25" width="150" height="30" as="geometry" />
        </mxCell>
        <mxCell id="w7tAdLLK2ZvJtZfWx73t-100" value="" style="endArrow=classic;html=1;rounded=0;exitX=1;exitY=0;exitDx=0;exitDy=0;entryX=0;entryY=0.5;entryDx=0;entryDy=0;" edge="1" parent="1" source="w7tAdLLK2ZvJtZfWx73t-85" target="w7tAdLLK2ZvJtZfWx73t-103">
          <mxGeometry width="50" height="50" relative="1" as="geometry">
            <mxPoint x="1820" y="600" as="sourcePoint" />
            <mxPoint x="1840" y="420" as="targetPoint" />
          </mxGeometry>
        </mxCell>
        <mxCell id="w7tAdLLK2ZvJtZfWx73t-101" value="Emd phase" style="rounded=0;whiteSpace=wrap;html=1;" vertex="1" parent="1">
          <mxGeometry x="1990" width="770" height="60" as="geometry" />
        </mxCell>
        <mxCell id="w7tAdLLK2ZvJtZfWx73t-103" value="Check if smallergrid ship list has ships left" style="rounded=0;whiteSpace=wrap;html=1;" vertex="1" parent="1">
          <mxGeometry x="1870" y="478" width="120" height="60" as="geometry" />
        </mxCell>
        <mxCell id="w7tAdLLK2ZvJtZfWx73t-104" value="" style="endArrow=classic;html=1;rounded=0;exitX=1;exitY=0.5;exitDx=0;exitDy=0;entryX=0;entryY=0.5;entryDx=0;entryDy=0;" edge="1" parent="1" source="w7tAdLLK2ZvJtZfWx73t-41" target="w7tAdLLK2ZvJtZfWx73t-103">
          <mxGeometry width="50" height="50" relative="1" as="geometry">
            <mxPoint x="1790" y="340" as="sourcePoint" />
            <mxPoint x="1840" y="290" as="targetPoint" />
          </mxGeometry>
        </mxCell>
        <mxCell id="w7tAdLLK2ZvJtZfWx73t-109" value="" style="endArrow=classic;html=1;rounded=0;exitX=1;exitY=0.5;exitDx=0;exitDy=0;" edge="1" parent="1" source="w7tAdLLK2ZvJtZfWx73t-103">
          <mxGeometry width="50" height="50" relative="1" as="geometry">
            <mxPoint x="2020" y="517" as="sourcePoint" />
            <mxPoint x="2070" y="508" as="targetPoint" />
          </mxGeometry>
        </mxCell>
        <mxCell id="w7tAdLLK2ZvJtZfWx73t-112" value="if no ships left" style="text;html=1;align=center;verticalAlign=middle;resizable=0;points=[];autosize=1;strokeColor=none;fillColor=none;" vertex="1" parent="1">
          <mxGeometry x="1990" y="478" width="100" height="30" as="geometry" />
        </mxCell>
        <mxCell id="w7tAdLLK2ZvJtZfWx73t-113" value="player1 or player 2 win" style="rounded=0;whiteSpace=wrap;html=1;" vertex="1" parent="1">
          <mxGeometry x="2090" y="467" width="170" height="82" as="geometry" />
        </mxCell>
        <mxCell id="w7tAdLLK2ZvJtZfWx73t-114" value="&quot;all ships destroyed&quot; and &quot;press r to restart displayed&quot; displayed" style="rounded=0;whiteSpace=wrap;html=1;" vertex="1" parent="1">
          <mxGeometry x="2320" y="458" width="180" height="92" as="geometry" />
        </mxCell>
        <mxCell id="w7tAdLLK2ZvJtZfWx73t-115" value="" style="endArrow=classic;html=1;rounded=0;exitX=1;exitY=0.5;exitDx=0;exitDy=0;entryX=0;entryY=0.5;entryDx=0;entryDy=0;" edge="1" parent="1" source="w7tAdLLK2ZvJtZfWx73t-113" target="w7tAdLLK2ZvJtZfWx73t-114">
          <mxGeometry width="50" height="50" relative="1" as="geometry">
            <mxPoint x="2370" y="620" as="sourcePoint" />
            <mxPoint x="2420" y="570" as="targetPoint" />
          </mxGeometry>
        </mxCell>
        <mxCell id="w7tAdLLK2ZvJtZfWx73t-117" value="" style="curved=1;endArrow=classic;html=1;rounded=0;entryX=0.5;entryY=1;entryDx=0;entryDy=0;exitX=0.5;exitY=1;exitDx=0;exitDy=0;" edge="1" parent="1" source="w7tAdLLK2ZvJtZfWx73t-114" target="w7tAdLLK2ZvJtZfWx73t-7">
          <mxGeometry width="50" height="50" relative="1" as="geometry">
            <mxPoint x="2340" y="670" as="sourcePoint" />
            <mxPoint x="200" y="408" as="targetPoint" />
            <Array as="points">
              <mxPoint x="2270" y="630" />
              <mxPoint x="1660" y="1070" />
              <mxPoint x="960" y="910" />
              <mxPoint x="350" y="930" />
              <mxPoint x="180" y="710" />
            </Array>
          </mxGeometry>
        </mxCell>
        <mxCell id="w7tAdLLK2ZvJtZfWx73t-118" value="if r pressed" style="text;html=1;align=center;verticalAlign=middle;resizable=0;points=[];autosize=1;strokeColor=none;fillColor=none;rotation=-30;" vertex="1" parent="1">
          <mxGeometry x="2140" y="645" width="80" height="30" as="geometry" />
        </mxCell>
      </root>
    </mxGraphModel>
  </diagram>
</mxfile>
